<svg id="visual" viewBox="0 0 960 540" width="960" height="540" xmlns="http://www.w3.org/2000/svg" xmlns:xlink="http://www.w3.org/1999/xlink" version="1.1"><rect width="960" height="540" fill="#A7233A"></rect><g><g transform="translate(820 281)"><path d="M86.2 -31.8C97.5 6.9 82.8 50.4 53.4 71.2C24 92 -20.1 90.1 -49.4 68.7C-78.7 47.2 -93.2 6.1 -82.5 -31.8C-71.8 -69.6 -35.9 -104.3 0.8 -104.5C37.4 -104.8 74.8 -70.6 86.2 -31.8Z" stroke="#F7760E" fill="none" stroke-width="20"></path></g><g transform="translate(414 114)"><path d="M47 -15.2C53.9 6 47.7 31.5 31.5 43.2C15.3 55 -10.9 52.9 -27.8 40.2C-44.8 27.4 -52.5 3.9 -46.3 -16.2C-40.2 -36.3 -20.1 -53.1 0 -53.1C20.1 -53.1 40.1 -36.3 47 -15.2Z" stroke="#F7760E" fill="none" stroke-width="20"></path></g><g transform="translate(287 469)"><path d="M87.8 -33.1C97.8 2.2 78.8 42.3 48.6 63.4C18.4 84.5 -23 86.7 -49.8 67.4C-76.7 48.2 -88.8 7.7 -78.1 -28.6C-67.3 -65 -33.7 -97.2 2.6 -98C38.9 -98.9 77.8 -68.4 87.8 -33.1Z" stroke="#F7760E" fill="none" stroke-width="20"></path></g></g></svg>